<svg width="48" height="48" viewBox="0 0 48 48" fill="none" xmlns="http://www.w3.org/2000/svg">
<path d="M0 10C0 4.47715 4.47715 0 10 0H38C43.5228 0 48 4.47715 48 10V38C48 43.5228 43.5228 48 38 48H10C4.47715 48 0 43.5228 0 38V10Z" fill="black"/>
<path fill-rule="evenodd" clip-rule="evenodd" d="M21.3811 13.606C21.3811 13.754 21.3971 13.8735 21.4251 13.961C21.4571 14.049 21.4971 14.145 21.5531 14.249C21.5731 14.2805 21.5811 14.3125 21.5811 14.3405C21.5811 14.3805 21.5571 14.4205 21.5051 14.4605L21.2536 14.628C21.2232 14.6499 21.187 14.6624 21.1496 14.664C21.1096 14.664 21.0696 14.644 21.0301 14.608C20.9764 14.5502 20.9283 14.4874 20.8866 14.4205C20.8419 14.3438 20.8005 14.2652 20.7626 14.185C20.4516 14.552 20.0601 14.7355 19.5891 14.7355C19.2541 14.7355 18.9866 14.64 18.7911 14.4485C18.5961 14.2565 18.4961 14.0015 18.4961 13.682C18.4961 13.343 18.6161 13.067 18.8591 12.86C19.1026 12.6525 19.4256 12.5485 19.8366 12.5485C19.9726 12.5485 20.1121 12.5605 20.2596 12.5805C20.4076 12.6005 20.5596 12.6325 20.7186 12.6685V12.377C20.7186 12.0735 20.6551 11.862 20.5311 11.7385C20.4036 11.6145 20.1881 11.555 19.8811 11.555C19.7411 11.555 19.5971 11.5705 19.4496 11.6065C19.3021 11.6425 19.1581 11.6865 19.0186 11.7425C18.9731 11.7627 18.9263 11.7801 18.8786 11.7945C18.858 11.8011 18.8367 11.805 18.8151 11.806C18.7591 11.806 18.7311 11.766 18.7311 11.6825V11.487C18.7311 11.423 18.7391 11.375 18.7591 11.347C18.7893 11.3107 18.8277 11.2821 18.8711 11.2635C19.031 11.1841 19.1996 11.1237 19.3736 11.0835C19.5771 11.0314 19.7865 11.006 19.9966 11.008C20.4716 11.008 20.8186 11.116 21.0421 11.3315C21.2621 11.5465 21.3731 11.874 21.3731 12.313V13.606H21.3811ZM19.7611 14.213C19.8926 14.213 20.0281 14.189 20.1721 14.141C20.3185 14.0904 20.4491 14.0025 20.5511 13.886C20.6156 13.8123 20.6621 13.7247 20.6871 13.63C20.7106 13.5345 20.7271 13.4185 20.7271 13.283V13.1155C20.606 13.086 20.4833 13.0633 20.3596 13.0475C20.2352 13.0317 20.11 13.0237 19.9846 13.0235C19.7171 13.0235 19.5216 13.0755 19.3896 13.1835C19.2581 13.291 19.1946 13.4425 19.1946 13.642C19.1946 13.8295 19.2421 13.9695 19.3421 14.065C19.4376 14.165 19.5771 14.213 19.7611 14.213ZM22.9661 14.644C22.8941 14.644 22.8461 14.632 22.8141 14.604C22.7821 14.58 22.7541 14.524 22.7301 14.4485L21.7926 11.363C21.7744 11.3113 21.7623 11.2576 21.7566 11.203C21.7566 11.139 21.7886 11.103 21.8521 11.103H22.2436C22.3191 11.103 22.3711 11.1155 22.3986 11.143C22.4311 11.167 22.4551 11.223 22.4786 11.299L23.1496 13.941L23.7721 11.299C23.7921 11.219 23.8161 11.167 23.8476 11.143C23.8956 11.1136 23.9514 11.0996 24.0076 11.103H24.3266C24.4026 11.103 24.4546 11.1155 24.4866 11.143C24.5181 11.167 24.5466 11.223 24.5621 11.299L25.1926 13.973L25.8831 11.299C25.9071 11.219 25.9351 11.167 25.9631 11.143C26.0094 11.1136 26.0638 11.0996 26.1186 11.103H26.4901C26.5536 11.103 26.5901 11.1355 26.5901 11.203C26.5901 11.223 26.5856 11.243 26.5816 11.267C26.5753 11.3011 26.566 11.3346 26.5536 11.367L25.5921 14.452C25.5681 14.532 25.5401 14.5835 25.5081 14.6075C25.463 14.6364 25.41 14.6504 25.3566 14.6475H25.0131C24.9381 14.6475 24.8856 14.6355 24.8531 14.6075C24.8216 14.5795 24.7936 14.5275 24.7781 14.4475L24.1596 11.8735L23.5446 14.4435C23.5246 14.5235 23.5011 14.5755 23.4696 14.6035C23.4371 14.6315 23.3811 14.6435 23.3096 14.6435L22.9666 14.644H22.9661ZM28.0941 14.7515C27.8866 14.7515 27.6791 14.7275 27.4796 14.68C27.2801 14.632 27.1246 14.58 27.0206 14.52C26.9566 14.4845 26.9131 14.4445 26.8971 14.4085C26.8815 14.3732 26.8733 14.3351 26.8731 14.2965V14.093C26.8731 14.0095 26.9051 13.9695 26.9646 13.9695C26.9886 13.9695 27.0126 13.9735 27.0366 13.9815C27.0606 13.9895 27.0966 14.0055 27.1366 14.0215C27.2721 14.0815 27.4196 14.129 27.5756 14.161C27.7356 14.193 27.8906 14.209 28.0506 14.209C28.3016 14.209 28.4976 14.165 28.6331 14.077C28.698 14.0378 28.7515 13.982 28.7879 13.9155C28.8243 13.8489 28.8425 13.7739 28.8406 13.698C28.8421 13.6466 28.8333 13.5955 28.8149 13.5475C28.7964 13.4995 28.7686 13.4557 28.7331 13.4185C28.6611 13.343 28.5251 13.275 28.3296 13.211L27.7511 13.031C27.4596 12.9395 27.2441 12.804 27.1126 12.6245C26.9839 12.4588 26.9136 12.2553 26.9126 12.0455C26.9126 11.878 26.9491 11.7305 27.0206 11.6025C27.0926 11.475 27.1881 11.363 27.3081 11.2755C27.4281 11.1835 27.5631 11.1155 27.7231 11.068C27.8831 11.02 28.0506 11 28.2261 11C28.3136 11 28.4061 11.004 28.4936 11.016C28.5851 11.028 28.6686 11.044 28.7526 11.06C28.8326 11.08 28.9086 11.1 28.9801 11.1235C29.0521 11.1475 29.1081 11.1715 29.1481 11.1955C29.1952 11.2192 29.2363 11.2534 29.2681 11.2955C29.2939 11.3343 29.3063 11.3805 29.3036 11.427V11.6145C29.3036 11.6985 29.2716 11.7425 29.2116 11.7425C29.1585 11.7364 29.107 11.7201 29.0601 11.6945C28.819 11.588 28.5577 11.5349 28.2941 11.539C28.0666 11.539 27.8866 11.5745 27.7631 11.6505C27.6391 11.7265 27.5756 11.842 27.5756 12.0055C27.5756 12.1175 27.6156 12.2135 27.6956 12.289C27.7756 12.365 27.9226 12.441 28.1341 12.509L28.7011 12.688C28.9881 12.78 29.1961 12.908 29.3196 13.0715C29.4431 13.235 29.5031 13.4225 29.5031 13.63C29.5031 13.8015 29.4671 13.9575 29.3996 14.093C29.3286 14.2296 29.2292 14.3495 29.1081 14.4445C28.9841 14.5445 28.8366 14.616 28.6651 14.668C28.4851 14.7235 28.2981 14.7515 28.0941 14.7515Z" fill="white"/>
<path fill-rule="evenodd" clip-rule="evenodd" d="M18.1891 15.7374C19.8811 16.7189 21.9691 17.3139 24.1276 17.3139C25.5846 17.3139 27.1846 17.0104 28.6576 16.3879C28.8776 16.2879 29.0646 16.5314 28.8491 16.6914C27.5361 17.6614 25.6281 18.1759 23.9881 18.1759C21.6891 18.1759 19.6181 17.3259 18.0531 15.9129C17.9296 15.8014 18.0411 15.6494 18.1891 15.7374ZM29.9546 15.6374C30.0981 15.8174 29.9146 17.0504 29.2121 17.6409C29.1046 17.7329 29.0006 17.6849 29.0486 17.5654L29.1361 17.3459C29.3076 16.9059 29.5371 16.2469 29.3961 16.0684C29.2281 15.8534 28.2861 15.9649 27.8591 16.0169C27.7316 16.0329 27.7116 15.9209 27.8276 15.8369C28.5776 15.3104 29.8111 15.4619 29.9546 15.6374Z" fill="#FF9900"/>
<path d="M11.0918 36L14.3906 27.4102H15.6152L19.1309 36H17.8359L16.834 33.3984H13.2422L12.2988 36H11.0918ZM13.5703 32.4727H16.4824L15.5859 30.0938C15.3125 29.3711 15.1094 28.7773 14.9766 28.3125C14.8672 28.8633 14.7129 29.4102 14.5137 29.9531L13.5703 32.4727ZM21.0938 36L18.8145 27.4102H19.9805L21.2871 33.041C21.4277 33.6309 21.5488 34.2168 21.6504 34.7988C21.8691 33.8809 21.998 33.3516 22.0371 33.2109L23.6719 27.4102H25.043L26.2734 31.7578C26.582 32.8359 26.8047 33.8496 26.9414 34.7988C27.0508 34.2559 27.1934 33.6328 27.3691 32.9297L28.7168 27.4102H29.8594L27.5039 36H26.4082L24.5977 29.4551C24.4453 28.9082 24.3555 28.5723 24.3281 28.4473C24.2383 28.8418 24.1543 29.1777 24.0762 29.4551L22.2539 36H21.0938ZM30.5391 33.2402L31.6113 33.1465C31.6621 33.5762 31.7793 33.9297 31.9629 34.207C32.1504 34.4805 32.4395 34.7031 32.8301 34.875C33.2207 35.043 33.6602 35.127 34.1484 35.127C34.582 35.127 34.9648 35.0625 35.2969 34.9336C35.6289 34.8047 35.875 34.6289 36.0352 34.4062C36.1992 34.1797 36.2812 33.9336 36.2812 33.668C36.2812 33.3984 36.2031 33.1641 36.0469 32.9648C35.8906 32.7617 35.6328 32.5918 35.2734 32.4551C35.043 32.3652 34.5332 32.2266 33.7441 32.0391C32.9551 31.8477 32.4023 31.668 32.0859 31.5C31.6758 31.2852 31.3691 31.0195 31.166 30.7031C30.9668 30.3828 30.8672 30.0254 30.8672 29.6309C30.8672 29.1973 30.9902 28.793 31.2363 28.418C31.4824 28.0391 31.8418 27.752 32.3145 27.5566C32.7871 27.3613 33.3125 27.2637 33.8906 27.2637C34.5273 27.2637 35.0879 27.3672 35.5723 27.5742C36.0605 27.7773 36.4355 28.0781 36.6973 28.4766C36.959 28.875 37.0996 29.3262 37.1191 29.8301L36.0293 29.9121C35.9707 29.3691 35.7715 28.959 35.4316 28.6816C35.0957 28.4043 34.5977 28.2656 33.9375 28.2656C33.25 28.2656 32.748 28.3926 32.4316 28.6465C32.1191 28.8965 31.9629 29.1992 31.9629 29.5547C31.9629 29.8633 32.0742 30.1172 32.2969 30.3164C32.5156 30.5156 33.0859 30.7207 34.0078 30.9316C34.9336 31.1387 35.5684 31.3203 35.9121 31.4766C36.4121 31.707 36.7812 32 37.0195 32.3555C37.2578 32.707 37.377 33.1133 37.377 33.5742C37.377 34.0312 37.2461 34.4629 36.9844 34.8691C36.7227 35.2715 36.3457 35.5859 35.8535 35.8125C35.3652 36.0352 34.8145 36.1465 34.2012 36.1465C33.4238 36.1465 32.7715 36.0332 32.2441 35.8066C31.7207 35.5801 31.3086 35.2402 31.0078 34.7871C30.7109 34.3301 30.5547 33.8145 30.5391 33.2402Z" fill="white"/>
</svg>
