<svg width="58" height="58" viewBox="0 0 58 58" fill="none" xmlns="http://www.w3.org/2000/svg">
<g filter="url(#filter0_dd_117_3014)">
<path d="M5 11C5 5.47715 9.47715 1 15 1H43C48.5229 1 53 5.47715 53 11V39C53 44.5229 48.5228 49 43 49H15C9.47715 49 5 44.5228 5 39V11Z" fill="black" shape-rendering="crispEdges"/>
<path fill-rule="evenodd" clip-rule="evenodd" d="M26.3811 14.606C26.3811 14.754 26.3971 14.8735 26.4251 14.961C26.4571 15.049 26.4971 15.145 26.5531 15.249C26.5731 15.2805 26.5811 15.3125 26.5811 15.3405C26.5811 15.3805 26.5571 15.4205 26.5051 15.4605L26.2536 15.628C26.2232 15.6499 26.187 15.6624 26.1496 15.664C26.1096 15.664 26.0696 15.644 26.0301 15.608C25.9764 15.5502 25.9283 15.4874 25.8866 15.4205C25.8419 15.3438 25.8005 15.2652 25.7626 15.185C25.4516 15.552 25.0601 15.7355 24.5891 15.7355C24.2541 15.7355 23.9866 15.64 23.7911 15.4485C23.5961 15.2565 23.4961 15.0015 23.4961 14.682C23.4961 14.343 23.6161 14.067 23.8591 13.86C24.1026 13.6525 24.4256 13.5485 24.8366 13.5485C24.9726 13.5485 25.1121 13.5605 25.2596 13.5805C25.4076 13.6005 25.5596 13.6325 25.7186 13.6685V13.377C25.7186 13.0735 25.6551 12.862 25.5311 12.7385C25.4036 12.6145 25.1881 12.555 24.8811 12.555C24.7411 12.555 24.5971 12.5705 24.4496 12.6065C24.3021 12.6425 24.1581 12.6865 24.0186 12.7425C23.9731 12.7627 23.9263 12.7801 23.8786 12.7945C23.858 12.8011 23.8367 12.805 23.8151 12.806C23.7591 12.806 23.7311 12.766 23.7311 12.6825V12.487C23.7311 12.423 23.7391 12.375 23.7591 12.347C23.7893 12.3107 23.8277 12.2821 23.8711 12.2635C24.031 12.1841 24.1996 12.1237 24.3736 12.0835C24.5771 12.0314 24.7865 12.006 24.9966 12.008C25.4716 12.008 25.8186 12.116 26.0421 12.3315C26.2621 12.5465 26.3731 12.874 26.3731 13.313V14.606H26.3811ZM24.7611 15.213C24.8926 15.213 25.0281 15.189 25.1721 15.141C25.3185 15.0904 25.4491 15.0025 25.5511 14.886C25.6156 14.8123 25.6621 14.7247 25.6871 14.63C25.7106 14.5345 25.7271 14.4185 25.7271 14.283V14.1155C25.606 14.086 25.4833 14.0633 25.3596 14.0475C25.2352 14.0317 25.11 14.0237 24.9846 14.0235C24.7171 14.0235 24.5216 14.0755 24.3896 14.1835C24.2581 14.291 24.1946 14.4425 24.1946 14.642C24.1946 14.8295 24.2421 14.9695 24.3421 15.065C24.4376 15.165 24.5771 15.213 24.7611 15.213ZM27.9661 15.644C27.8941 15.644 27.8461 15.632 27.8141 15.604C27.7821 15.58 27.7541 15.524 27.7301 15.4485L26.7926 12.363C26.7744 12.3113 26.7623 12.2576 26.7566 12.203C26.7566 12.139 26.7886 12.103 26.8521 12.103H27.2436C27.3191 12.103 27.3711 12.1155 27.3986 12.143C27.4311 12.167 27.4551 12.223 27.4786 12.299L28.1496 14.941L28.7721 12.299C28.7921 12.219 28.8161 12.167 28.8476 12.143C28.8956 12.1136 28.9514 12.0996 29.0076 12.103H29.3266C29.4026 12.103 29.4546 12.1155 29.4866 12.143C29.5181 12.167 29.5466 12.223 29.5621 12.299L30.1926 14.973L30.8831 12.299C30.9071 12.219 30.9351 12.167 30.9631 12.143C31.0094 12.1136 31.0638 12.0996 31.1186 12.103H31.4901C31.5536 12.103 31.5901 12.1355 31.5901 12.203C31.5901 12.223 31.5856 12.243 31.5816 12.267C31.5753 12.3011 31.566 12.3346 31.5536 12.367L30.5921 15.452C30.5681 15.532 30.5401 15.5835 30.5081 15.6075C30.463 15.6364 30.41 15.6504 30.3566 15.6475H30.0131C29.9381 15.6475 29.8856 15.6355 29.8531 15.6075C29.8216 15.5795 29.7936 15.5275 29.7781 15.4475L29.1596 12.8735L28.5446 15.4435C28.5246 15.5235 28.5011 15.5755 28.4696 15.6035C28.4371 15.6315 28.3811 15.6435 28.3096 15.6435L27.9666 15.644H27.9661ZM33.0941 15.7515C32.8866 15.7515 32.6791 15.7275 32.4796 15.68C32.2801 15.632 32.1246 15.58 32.0206 15.52C31.9566 15.4845 31.9131 15.4445 31.8971 15.4085C31.8815 15.3732 31.8733 15.3351 31.8731 15.2965V15.093C31.8731 15.0095 31.9051 14.9695 31.9646 14.9695C31.9886 14.9695 32.0126 14.9735 32.0366 14.9815C32.0606 14.9895 32.0966 15.0055 32.1366 15.0215C32.2721 15.0815 32.4196 15.129 32.5756 15.161C32.7356 15.193 32.8906 15.209 33.0506 15.209C33.3016 15.209 33.4976 15.165 33.6331 15.077C33.698 15.0378 33.7515 14.982 33.7879 14.9155C33.8243 14.8489 33.8425 14.7739 33.8406 14.698C33.8421 14.6466 33.8333 14.5955 33.8149 14.5475C33.7964 14.4995 33.7686 14.4557 33.7331 14.4185C33.6611 14.343 33.5251 14.275 33.3296 14.211L32.7511 14.031C32.4596 13.9395 32.2441 13.804 32.1126 13.6245C31.9839 13.4588 31.9136 13.2553 31.9126 13.0455C31.9126 12.878 31.9491 12.7305 32.0206 12.6025C32.0926 12.475 32.1881 12.363 32.3081 12.2755C32.4281 12.1835 32.5631 12.1155 32.7231 12.068C32.8831 12.02 33.0506 12 33.2261 12C33.3136 12 33.4061 12.004 33.4936 12.016C33.5851 12.028 33.6686 12.044 33.7526 12.06C33.8326 12.08 33.9086 12.1 33.9801 12.1235C34.0521 12.1475 34.1081 12.1715 34.1481 12.1955C34.1952 12.2192 34.2363 12.2534 34.2681 12.2955C34.2939 12.3343 34.3063 12.3805 34.3036 12.427V12.6145C34.3036 12.6985 34.2716 12.7425 34.2116 12.7425C34.1585 12.7364 34.107 12.7201 34.0601 12.6945C33.819 12.588 33.5577 12.5349 33.2941 12.539C33.0666 12.539 32.8866 12.5745 32.7631 12.6505C32.6391 12.7265 32.5756 12.842 32.5756 13.0055C32.5756 13.1175 32.6156 13.2135 32.6956 13.289C32.7756 13.365 32.9226 13.441 33.1341 13.509L33.7011 13.688C33.9881 13.78 34.1961 13.908 34.3196 14.0715C34.4431 14.235 34.5031 14.4225 34.5031 14.63C34.5031 14.8015 34.4671 14.9575 34.3996 15.093C34.3286 15.2296 34.2292 15.3495 34.1081 15.4445C33.9841 15.5445 33.8366 15.616 33.6651 15.668C33.4851 15.7235 33.2981 15.7515 33.0941 15.7515Z" fill="white"/>
<path fill-rule="evenodd" clip-rule="evenodd" d="M23.1891 16.7374C24.8811 17.7189 26.9691 18.3139 29.1276 18.3139C30.5846 18.3139 32.1846 18.0104 33.6576 17.3879C33.8776 17.2879 34.0646 17.5314 33.8491 17.6914C32.5361 18.6614 30.6281 19.1759 28.9881 19.1759C26.6891 19.1759 24.6181 18.3259 23.0531 16.9129C22.9296 16.8014 23.0411 16.6494 23.1891 16.7374ZM34.9546 16.6374C35.0981 16.8174 34.9146 18.0504 34.2121 18.6409C34.1046 18.7329 34.0006 18.6849 34.0486 18.5654L34.1361 18.3459C34.3076 17.9059 34.5371 17.2469 34.3961 17.0684C34.2281 16.8534 33.2861 16.9649 32.8591 17.0169C32.7316 17.0329 32.7116 16.9209 32.8276 16.8369C33.5776 16.3104 34.8111 16.4619 34.9546 16.6374Z" fill="#FF9900"/>
<path d="M16.0918 37L19.3906 28.4102H20.6152L24.1309 37H22.8359L21.834 34.3984H18.2422L17.2988 37H16.0918ZM18.5703 33.4727H21.4824L20.5859 31.0938C20.3125 30.3711 20.1094 29.7773 19.9766 29.3125C19.8672 29.8633 19.7129 30.4102 19.5137 30.9531L18.5703 33.4727ZM26.0938 37L23.8145 28.4102H24.9805L26.2871 34.041C26.4277 34.6309 26.5488 35.2168 26.6504 35.7988C26.8691 34.8809 26.998 34.3516 27.0371 34.2109L28.6719 28.4102H30.043L31.2734 32.7578C31.582 33.8359 31.8047 34.8496 31.9414 35.7988C32.0508 35.2559 32.1934 34.6328 32.3691 33.9297L33.7168 28.4102H34.8594L32.5039 37H31.4082L29.5977 30.4551C29.4453 29.9082 29.3555 29.5723 29.3281 29.4473C29.2383 29.8418 29.1543 30.1777 29.0762 30.4551L27.2539 37H26.0938ZM35.5391 34.2402L36.6113 34.1465C36.6621 34.5762 36.7793 34.9297 36.9629 35.207C37.1504 35.4805 37.4395 35.7031 37.8301 35.875C38.2207 36.043 38.6602 36.127 39.1484 36.127C39.582 36.127 39.9648 36.0625 40.2969 35.9336C40.6289 35.8047 40.875 35.6289 41.0352 35.4062C41.1992 35.1797 41.2812 34.9336 41.2812 34.668C41.2812 34.3984 41.2031 34.1641 41.0469 33.9648C40.8906 33.7617 40.6328 33.5918 40.2734 33.4551C40.043 33.3652 39.5332 33.2266 38.7441 33.0391C37.9551 32.8477 37.4023 32.668 37.0859 32.5C36.6758 32.2852 36.3691 32.0195 36.166 31.7031C35.9668 31.3828 35.8672 31.0254 35.8672 30.6309C35.8672 30.1973 35.9902 29.793 36.2363 29.418C36.4824 29.0391 36.8418 28.752 37.3145 28.5566C37.7871 28.3613 38.3125 28.2637 38.8906 28.2637C39.5273 28.2637 40.0879 28.3672 40.5723 28.5742C41.0605 28.7773 41.4355 29.0781 41.6973 29.4766C41.959 29.875 42.0996 30.3262 42.1191 30.8301L41.0293 30.9121C40.9707 30.3691 40.7715 29.959 40.4316 29.6816C40.0957 29.4043 39.5977 29.2656 38.9375 29.2656C38.25 29.2656 37.748 29.3926 37.4316 29.6465C37.1191 29.8965 36.9629 30.1992 36.9629 30.5547C36.9629 30.8633 37.0742 31.1172 37.2969 31.3164C37.5156 31.5156 38.0859 31.7207 39.0078 31.9316C39.9336 32.1387 40.5684 32.3203 40.9121 32.4766C41.4121 32.707 41.7812 33 42.0195 33.3555C42.2578 33.707 42.377 34.1133 42.377 34.5742C42.377 35.0312 42.2461 35.4629 41.9844 35.8691C41.7227 36.2715 41.3457 36.5859 40.8535 36.8125C40.3652 37.0352 39.8145 37.1465 39.2012 37.1465C38.4238 37.1465 37.7715 37.0332 37.2441 36.8066C36.7207 36.5801 36.3086 36.2402 36.0078 35.7871C35.7109 35.3301 35.5547 34.8145 35.5391 34.2402Z" fill="white"/>
</g>
<defs>
<filter id="filter0_dd_117_3014" x="0" y="0" width="58" height="58" filterUnits="userSpaceOnUse" color-interpolation-filters="sRGB">
<feFlood flood-opacity="0" result="BackgroundImageFix"/>
<feColorMatrix in="SourceAlpha" type="matrix" values="0 0 0 0 0 0 0 0 0 0 0 0 0 0 0 0 0 0 127 0" result="hardAlpha"/>
<feMorphology radius="2" operator="erode" in="SourceAlpha" result="effect1_dropShadow_117_3014"/>
<feOffset dy="2"/>
<feGaussianBlur stdDeviation="2"/>
<feComposite in2="hardAlpha" operator="out"/>
<feColorMatrix type="matrix" values="0 0 0 0 0 0 0 0 0 0 0 0 0 0 0 0 0 0 0.05 0"/>
<feBlend mode="normal" in2="BackgroundImageFix" result="effect1_dropShadow_117_3014"/>
<feColorMatrix in="SourceAlpha" type="matrix" values="0 0 0 0 0 0 0 0 0 0 0 0 0 0 0 0 0 0 127 0" result="hardAlpha"/>
<feMorphology radius="1" operator="erode" in="SourceAlpha" result="effect2_dropShadow_117_3014"/>
<feOffset dy="4"/>
<feGaussianBlur stdDeviation="3"/>
<feComposite in2="hardAlpha" operator="out"/>
<feColorMatrix type="matrix" values="0 0 0 0 0 0 0 0 0 0 0 0 0 0 0 0 0 0 0.2 0"/>
<feBlend mode="normal" in2="effect1_dropShadow_117_3014" result="effect2_dropShadow_117_3014"/>
<feBlend mode="normal" in="SourceGraphic" in2="effect2_dropShadow_117_3014" result="shape"/>
</filter>
</defs>
</svg>
