<svg width="48" height="48" viewBox="0 0 48 48" fill="none" xmlns="http://www.w3.org/2000/svg">
<path d="M0 10C0 4.47715 4.47715 0 10 0H38C43.5229 0 48 4.47715 48 10V38C48 43.5229 43.5228 48 38 48H10C4.47715 48 0 43.5228 0 38V10Z" fill="#0865B6"/>
<g clip-path="url(#clip0_117_3020)">
<path fill-rule="evenodd" clip-rule="evenodd" d="M27.1979 15.6479H21.6994C21.6483 15.6481 21.5985 15.6636 21.5564 15.6925C21.5142 15.7213 21.4817 15.7621 21.463 15.8096C21.4443 15.8571 21.4403 15.9091 21.4515 15.9589C21.4627 16.0087 21.4886 16.054 21.5259 16.0889L25.0589 19.3864C25.1619 19.4824 25.2974 19.5354 25.4379 19.5354H28.5509L27.1979 15.6479Z" fill="white" fill-opacity="0.75"/>
<path fill-rule="evenodd" clip-rule="evenodd" d="M22.1481 8.42871C21.9096 8.42871 21.6981 8.58071 21.6216 8.80671L18.2481 18.8027C18.2198 18.8862 18.2118 18.9753 18.2248 19.0625C18.2378 19.1498 18.2714 19.2326 18.3228 19.3043C18.3743 19.3759 18.442 19.4343 18.5205 19.4745C18.5989 19.5148 18.6859 19.5358 18.7741 19.5357H21.4891C21.7276 19.5357 21.9391 19.3837 22.0156 19.1582L22.6861 17.1707L21.5271 16.0892C21.4898 16.0543 21.4639 16.009 21.4527 15.9592C21.4415 15.9094 21.4455 15.8574 21.4642 15.8099C21.4829 15.7623 21.5154 15.7215 21.5576 15.6927C21.5997 15.6639 21.6495 15.6484 21.7006 15.6482H23.2006L25.6361 8.42871H22.1481Z" fill="white" fill-opacity="0.5"/>
<path fill-rule="evenodd" clip-rule="evenodd" d="M26.5951 8.80671C26.558 8.69657 26.4873 8.60084 26.3929 8.53302C26.2986 8.4652 26.1853 8.42871 26.0691 8.42871H22.1641H22.1816C22.4201 8.42871 22.6316 8.58071 22.7076 8.80671L26.0816 18.8027C26.1098 18.8862 26.1178 18.9753 26.1048 19.0625C26.0918 19.1498 26.0582 19.2326 26.0068 19.3043C25.9554 19.3759 25.8876 19.4343 25.8092 19.4745C25.7307 19.5148 25.6438 19.5358 25.5556 19.5357H25.4956H29.4431C29.5313 19.5358 29.6182 19.5148 29.6967 19.4745C29.7751 19.4343 29.8429 19.3759 29.8943 19.3043C29.9457 19.2326 29.9793 19.1498 29.9923 19.0625C30.0053 18.9753 29.9973 18.8862 29.9691 18.8027L26.5951 8.80671Z" fill="white"/>
</g>
<path d="M8.31055 36L11.6094 27.4102H12.834L16.3496 36H15.0547L14.0527 33.3984H10.4609L9.51758 36H8.31055ZM10.7891 32.4727H13.7012L12.8047 30.0938C12.5312 29.3711 12.3281 28.7773 12.1953 28.3125C12.0859 28.8633 11.9316 29.4102 11.7324 29.9531L10.7891 32.4727ZM16.5664 36V35.1445L20.5273 30.5977C20.0781 30.6211 19.6816 30.6328 19.3379 30.6328H16.8008V29.7773H21.8867V30.4746L18.5176 34.4238L17.8672 35.1445C18.3398 35.1094 18.7832 35.0918 19.1973 35.0918H22.0742V36H16.5664ZM27.2012 36V35.0859C26.7168 35.7891 26.0586 36.1406 25.2266 36.1406C24.8594 36.1406 24.5156 36.0703 24.1953 35.9297C23.8789 35.7891 23.6426 35.6133 23.4863 35.4023C23.334 35.1875 23.2266 34.9258 23.1641 34.6172C23.1211 34.4102 23.0996 34.082 23.0996 33.6328V29.7773H24.1543V33.2285C24.1543 33.7793 24.1758 34.1504 24.2188 34.3418C24.2852 34.6191 24.4258 34.8379 24.6406 34.998C24.8555 35.1543 25.1211 35.2324 25.4375 35.2324C25.7539 35.2324 26.0508 35.1523 26.3281 34.9922C26.6055 34.8281 26.8008 34.6074 26.9141 34.3301C27.0312 34.0488 27.0898 33.6426 27.0898 33.1113V29.7773H28.1445V36H27.2012ZM29.791 36V29.7773H30.7402V30.7207C30.9824 30.2793 31.2051 29.9883 31.4082 29.8477C31.6152 29.707 31.8418 29.6367 32.0879 29.6367C32.4434 29.6367 32.8047 29.75 33.1719 29.9766L32.8086 30.9551C32.5508 30.8027 32.293 30.7266 32.0352 30.7266C31.8047 30.7266 31.5977 30.7969 31.4141 30.9375C31.2305 31.0742 31.0996 31.2656 31.0215 31.5117C30.9043 31.8867 30.8457 32.2969 30.8457 32.7422V36H29.791ZM38.0586 33.9961L39.1484 34.1309C38.9766 34.7676 38.6582 35.2617 38.1934 35.6133C37.7285 35.9648 37.1348 36.1406 36.4121 36.1406C35.502 36.1406 34.7793 35.8613 34.2441 35.3027C33.7129 34.7402 33.4473 33.9531 33.4473 32.9414C33.4473 31.8945 33.7168 31.082 34.2559 30.5039C34.7949 29.9258 35.4941 29.6367 36.3535 29.6367C37.1855 29.6367 37.8652 29.9199 38.3926 30.4863C38.9199 31.0527 39.1836 31.8496 39.1836 32.877C39.1836 32.9395 39.1816 33.0332 39.1777 33.1582H34.5371C34.5762 33.8418 34.7695 34.3652 35.1172 34.7285C35.4648 35.0918 35.8984 35.2734 36.418 35.2734C36.8047 35.2734 37.1348 35.1719 37.4082 34.9688C37.6816 34.7656 37.8984 34.4414 38.0586 33.9961ZM34.5957 32.291H38.0703C38.0234 31.7676 37.8906 31.375 37.6719 31.1133C37.3359 30.707 36.9004 30.5039 36.3652 30.5039C35.8809 30.5039 35.4727 30.666 35.1406 30.9902C34.8125 31.3145 34.6309 31.748 34.5957 32.291Z" fill="white"/>
<defs>
<clipPath id="clip0_117_3020">
<rect width="12" height="12" fill="white" transform="translate(18 8)"/>
</clipPath>
</defs>
</svg>
