<svg width="48" height="48" viewBox="0 0 48 48" fill="none" xmlns="http://www.w3.org/2000/svg">
<path d="M0 10C0 4.47715 4.47715 0 10 0H38C43.5229 0 48 4.47715 48 10V38C48 43.5229 43.5228 48 38 48H10C4.47715 48 0 43.5228 0 38V10Z" fill="white"/>
<g clip-path="url(#clip0_117_3027)">
<path d="M25.492 11.9698H25.8348L26.812 11.0198L26.86 10.6165C26.3002 10.1361 25.6237 9.80246 24.8944 9.64697C24.1651 9.49148 23.4071 9.5193 22.692 9.72783C21.9768 9.93635 21.3281 10.3187 20.8072 10.8387C20.2863 11.3587 19.9103 11.9993 19.7148 12.6998C19.8237 12.6564 19.9443 12.6494 20.0577 12.6798L22.012 12.3665C22.012 12.3665 22.1114 12.2065 22.1628 12.2165C22.5816 11.7694 23.1603 11.4948 23.7804 11.4489C24.4006 11.4031 25.0154 11.5894 25.4988 11.9698H25.492Z" fill="#EA4335"/>
<path d="M28.2028 12.7001C27.9782 11.896 27.5171 11.1731 26.876 10.6201L25.5046 11.9535C25.7904 12.1805 26.0194 12.4677 26.1744 12.7934C26.3295 13.119 26.4064 13.4747 26.3994 13.8335V14.0701C26.5597 14.0701 26.7184 14.1008 26.8665 14.1604C27.0146 14.2201 27.1491 14.3075 27.2625 14.4177C27.3758 14.5279 27.4657 14.6587 27.5271 14.8027C27.5884 14.9466 27.62 15.1009 27.62 15.2568C27.62 15.4126 27.5884 15.5669 27.5271 15.7109C27.4657 15.8549 27.3758 15.9857 27.2625 16.0959C27.1491 16.2061 27.0146 16.2935 26.8665 16.3531C26.7184 16.4128 26.5597 16.4434 26.3994 16.4434H23.9583L23.7148 16.6834V18.1068L23.9583 18.3435H26.3994C27.0811 18.3486 27.7464 18.1403 28.2969 17.7494C28.8473 17.3584 29.2538 16.8056 29.456 16.1727C29.6583 15.5398 29.6456 14.8604 29.4199 14.235C29.1943 13.6096 28.7675 13.0714 28.2028 12.7001Z" fill="#4285F4"/>
<path d="M21.5142 18.3299H23.9554V16.4299H21.5142C21.3403 16.4299 21.1684 16.3935 21.0102 16.3232L20.6674 16.4266L19.6834 17.3766L19.5977 17.7099C20.1495 18.115 20.8228 18.3328 21.5142 18.3299Z" fill="#34A853"/>
<path d="M21.5133 12.1665C20.8519 12.1704 20.2082 12.375 19.6722 12.7517C19.1361 13.1285 18.7345 13.6586 18.5234 14.2681C18.3123 14.8775 18.3023 15.5358 18.4947 16.1511C18.6872 16.7663 19.0724 17.3078 19.5967 17.6999L21.0127 16.3232C20.8328 16.2442 20.6753 16.1238 20.5537 15.9726C20.432 15.8214 20.35 15.6437 20.3145 15.4548C20.2791 15.266 20.2913 15.0716 20.3501 14.8883C20.4089 14.7051 20.5126 14.5384 20.6522 14.4027C20.7918 14.2669 20.9632 14.1661 21.1517 14.109C21.3402 14.0518 21.5402 14.0399 21.7344 14.0744C21.9287 14.1089 22.1114 14.1886 22.267 14.3069C22.4226 14.4251 22.5463 14.5782 22.6276 14.7532L24.0436 13.3765C23.7464 12.9988 23.3633 12.693 22.9244 12.4831C22.4854 12.2732 22.0025 12.1648 21.5133 12.1665Z" fill="#FBBC05"/>
</g>
<path d="M15.9375 31.1309V30.123L19.5762 30.1172V33.3047C19.0176 33.75 18.4414 34.0859 17.8477 34.3125C17.2539 34.5352 16.6445 34.6465 16.0195 34.6465C15.1758 34.6465 14.4082 34.4668 13.7168 34.1074C13.0293 33.7441 12.5098 33.2207 12.1582 32.5371C11.8066 31.8535 11.6309 31.0898 11.6309 30.2461C11.6309 29.4102 11.8047 28.6309 12.1523 27.9082C12.5039 27.1816 13.0078 26.6426 13.6641 26.291C14.3203 25.9395 15.0762 25.7637 15.9316 25.7637C16.5527 25.7637 17.1133 25.8652 17.6133 26.0684C18.1172 26.2676 18.5117 26.5469 18.7969 26.9062C19.082 27.2656 19.2988 27.7344 19.4473 28.3125L18.4219 28.5938C18.293 28.1562 18.1328 27.8125 17.9414 27.5625C17.75 27.3125 17.4766 27.1133 17.1211 26.9648C16.7656 26.8125 16.3711 26.7363 15.9375 26.7363C15.418 26.7363 14.9688 26.8164 14.5898 26.9766C14.2109 27.1328 13.9043 27.3398 13.6699 27.5977C13.4395 27.8555 13.2598 28.1387 13.1309 28.4473C12.9121 28.9785 12.8027 29.5547 12.8027 30.1758C12.8027 30.9414 12.9336 31.582 13.1953 32.0977C13.4609 32.6133 13.8457 32.9961 14.3496 33.2461C14.8535 33.4961 15.3887 33.6211 15.9551 33.6211C16.4473 33.6211 16.9277 33.5273 17.3965 33.3398C17.8652 33.1484 18.2207 32.9453 18.4629 32.7305V31.1309H15.9375ZM27.3867 31.4883L28.5234 31.7754C28.2852 32.709 27.8555 33.4219 27.2344 33.9141C26.6172 34.4023 25.8613 34.6465 24.9668 34.6465C24.041 34.6465 23.2871 34.459 22.7051 34.084C22.127 33.7051 21.6855 33.1582 21.3809 32.4434C21.0801 31.7285 20.9297 30.9609 20.9297 30.1406C20.9297 29.2461 21.0996 28.4668 21.4395 27.8027C21.7832 27.1348 22.2695 26.6289 22.8984 26.2852C23.5312 25.9375 24.2266 25.7637 24.9844 25.7637C25.8438 25.7637 26.5664 25.9824 27.1523 26.4199C27.7383 26.8574 28.1465 27.4727 28.377 28.2656L27.2578 28.5293C27.0586 27.9043 26.7695 27.4492 26.3906 27.1641C26.0117 26.8789 25.5352 26.7363 24.9609 26.7363C24.3008 26.7363 23.748 26.8945 23.3027 27.2109C22.8613 27.5273 22.5508 27.9531 22.3711 28.4883C22.1914 29.0195 22.1016 29.5684 22.1016 30.1348C22.1016 30.8652 22.207 31.5039 22.418 32.0508C22.6328 32.5938 22.9648 33 23.4141 33.2695C23.8633 33.5391 24.3496 33.6738 24.873 33.6738C25.5098 33.6738 26.0488 33.4902 26.4902 33.123C26.9316 32.7559 27.2305 32.2109 27.3867 31.4883ZM29.9297 34.5V25.9102H33.1699C33.7402 25.9102 34.1758 25.9375 34.4766 25.9922C34.8984 26.0625 35.252 26.1973 35.5371 26.3965C35.8223 26.5918 36.0508 26.8672 36.2227 27.2227C36.3984 27.5781 36.4863 27.9688 36.4863 28.3945C36.4863 29.125 36.2539 29.7441 35.7891 30.252C35.3242 30.7559 34.4844 31.0078 33.2695 31.0078H31.0664V34.5H29.9297ZM31.0664 29.9941H33.2871C34.0215 29.9941 34.543 29.8574 34.8516 29.584C35.1602 29.3105 35.3145 28.9258 35.3145 28.4297C35.3145 28.0703 35.2227 27.7637 35.0391 27.5098C34.8594 27.252 34.6211 27.082 34.3242 27C34.1328 26.9492 33.7793 26.9238 33.2637 26.9238H31.0664V29.9941Z" fill="#0A0A0A"/>
<defs>
<clipPath id="clip0_117_3027">
<rect width="12" height="9" fill="white" transform="translate(18 9.5)"/>
</clipPath>
</defs>
</svg>
