<svg width="33" height="32" viewBox="0 0 33 32" fill="none" xmlns="http://www.w3.org/2000/svg">
<path d="M16.5433 2.66669H15.9567C15.2494 2.66669 14.5711 2.94764 14.0711 3.44774C13.571 3.94783 13.29 4.62611 13.29 5.33335V5.57335C13.2895 6.04099 13.1661 6.50027 12.9321 6.90514C12.698 7.31 12.3617 7.6462 11.9567 7.88002L11.3833 8.21335C10.978 8.4474 10.5181 8.57062 10.05 8.57062C9.5819 8.57062 9.12205 8.4474 8.71667 8.21335L8.51667 8.10669C7.90476 7.7537 7.17779 7.65795 6.49534 7.84043C5.81289 8.02292 5.23074 8.46873 4.87667 9.08002L4.58334 9.58669C4.23035 10.1986 4.13459 10.9256 4.31708 11.608C4.49957 12.2905 4.94538 12.8726 5.55667 13.2267L5.75667 13.36C6.1597 13.5927 6.49483 13.9268 6.72874 14.3291C6.96265 14.7315 7.08719 15.188 7.09 15.6534V16.3334C7.09187 16.8032 6.96954 17.2653 6.73539 17.6727C6.50125 18.0801 6.16361 18.4184 5.75667 18.6534L5.55667 18.7734C4.94538 19.1274 4.49957 19.7096 4.31708 20.392C4.13459 21.0745 4.23035 21.8014 4.58334 22.4134L4.87667 22.92C5.23074 23.5313 5.81289 23.9771 6.49534 24.1596C7.17779 24.3421 7.90476 24.2463 8.51667 23.8934L8.71667 23.7867C9.12205 23.5526 9.5819 23.4294 10.05 23.4294C10.5181 23.4294 10.978 23.5526 11.3833 23.7867L11.9567 24.12C12.3617 24.3538 12.698 24.69 12.9321 25.0949C13.1661 25.4998 13.2895 25.9591 13.29 26.4267V26.6667C13.29 27.3739 13.571 28.0522 14.0711 28.5523C14.5711 29.0524 15.2494 29.3334 15.9567 29.3334H16.5433C17.2506 29.3334 17.9289 29.0524 18.429 28.5523C18.9291 28.0522 19.21 27.3739 19.21 26.6667V26.4267C19.2105 25.9591 19.3339 25.4998 19.568 25.0949C19.802 24.69 20.1384 24.3538 20.5433 24.12L21.1167 23.7867C21.5221 23.5526 21.9819 23.4294 22.45 23.4294C22.9181 23.4294 23.378 23.5526 23.7833 23.7867L23.9833 23.8934C24.5952 24.2463 25.3222 24.3421 26.0047 24.1596C26.6871 23.9771 27.2693 23.5313 27.6233 22.92L27.9167 22.4C28.2697 21.7881 28.3654 21.0611 28.1829 20.3787C28.0004 19.6962 27.5546 19.1141 26.9433 18.76L26.7433 18.6534C26.3364 18.4184 25.9988 18.0801 25.7646 17.6727C25.5305 17.2653 25.4081 16.8032 25.41 16.3334V15.6667C25.4081 15.1968 25.5305 14.7348 25.7646 14.3273C25.9988 13.9199 26.3364 13.5816 26.7433 13.3467L26.9433 13.2267C27.5546 12.8726 28.0004 12.2905 28.1829 11.608C28.3654 10.9256 28.2697 10.1986 27.9167 9.58669L27.6233 9.08002C27.2693 8.46873 26.6871 8.02292 26.0047 7.84043C25.3222 7.65795 24.5952 7.7537 23.9833 8.10669L23.7833 8.21335C23.378 8.4474 22.9181 8.57062 22.45 8.57062C21.9819 8.57062 21.5221 8.4474 21.1167 8.21335L20.5433 7.88002C20.1384 7.6462 19.802 7.31 19.568 6.90514C19.3339 6.50027 19.2105 6.04099 19.21 5.57335V5.33335C19.21 4.62611 18.9291 3.94783 18.429 3.44774C17.9289 2.94764 17.2506 2.66669 16.5433 2.66669Z" stroke="#7B69EC" stroke-width="2.66667" stroke-linecap="round" stroke-linejoin="round"/>
<path d="M16.25 20C18.4591 20 20.25 18.2091 20.25 16C20.25 13.7909 18.4591 12 16.25 12C14.0409 12 12.25 13.7909 12.25 16C12.25 18.2091 14.0409 20 16.25 20Z" stroke="#7B69EC" stroke-width="2.66667" stroke-linecap="round" stroke-linejoin="round"/>
</svg>
