<svg width="33" height="32" viewBox="0 0 33 32" fill="none" xmlns="http://www.w3.org/2000/svg">
<path d="M16.25 10.6667C22.8774 10.6667 28.25 8.87583 28.25 6.66669C28.25 4.45755 22.8774 2.66669 16.25 2.66669C9.62258 2.66669 4.25 4.45755 4.25 6.66669C4.25 8.87583 9.62258 10.6667 16.25 10.6667Z" stroke="#3F48CC" stroke-width="2.66667" stroke-linecap="round" stroke-linejoin="round"/>
<path d="M4.25 6.66669V25.3334C4.25 26.3942 5.51428 27.4116 7.76472 28.1618C10.0152 28.9119 13.0674 29.3334 16.25 29.3334C19.4326 29.3334 22.4848 28.9119 24.7353 28.1618C26.9857 27.4116 28.25 26.3942 28.25 25.3334V6.66669" stroke="#3F48CC" stroke-width="2.66667" stroke-linecap="round" stroke-linejoin="round"/>
<path d="M4.25 16C4.25 17.0609 5.51428 18.0783 7.76472 18.8284C10.0152 19.5786 13.0674 20 16.25 20C19.4326 20 22.4848 19.5786 24.7353 18.8284C26.9857 18.0783 28.25 17.0609 28.25 16" stroke="#3F48CC" stroke-width="2.66667" stroke-linecap="round" stroke-linejoin="round"/>
</svg>
