<svg width="33" height="32" viewBox="0 0 33 32" fill="none" xmlns="http://www.w3.org/2000/svg">
<path d="M17.3568 2.90668C17.0094 2.74821 16.632 2.6662 16.2501 2.6662C15.8683 2.6662 15.4909 2.74821 15.1434 2.90668L3.71678 8.10667C3.48018 8.211 3.27902 8.38187 3.1378 8.59848C2.99658 8.81509 2.92139 9.06809 2.92139 9.32667C2.92139 9.58526 2.99658 9.83826 3.1378 10.0549C3.27902 10.2715 3.48018 10.4423 3.71678 10.5467L15.1568 15.76C15.5042 15.9185 15.8816 16.0005 16.2634 16.0005C16.6453 16.0005 17.0227 15.9185 17.3701 15.76L28.8101 10.56C29.0467 10.4557 29.2479 10.2848 29.3891 10.0682C29.5303 9.85159 29.6055 9.59859 29.6055 9.34001C29.6055 9.08143 29.5303 8.82843 29.3891 8.61182C29.2479 8.39521 29.0467 8.22433 28.8101 8.12001L17.3568 2.90668Z" stroke="#FF9900" stroke-width="2.66667" stroke-linecap="round" stroke-linejoin="round"/>
<path d="M2.91651 16C2.91588 16.255 2.9884 16.5049 3.12546 16.7199C3.26253 16.935 3.4584 17.1062 3.68984 17.2133L15.1565 22.4267C15.5021 22.5832 15.8771 22.6641 16.2565 22.6641C16.6359 22.6641 17.0109 22.5832 17.3565 22.4267L28.7965 17.2267C29.0325 17.1206 29.2326 16.9481 29.3722 16.7303C29.5119 16.5125 29.5852 16.2587 29.5832 16" stroke="#FF9900" stroke-width="2.66667" stroke-linecap="round" stroke-linejoin="round"/>
<path d="M2.91651 22.6667C2.91588 22.9217 2.9884 23.1716 3.12546 23.3866C3.26253 23.6017 3.4584 23.7729 3.68984 23.88L15.1565 29.0934C15.5021 29.2498 15.8771 29.3308 16.2565 29.3308C16.6359 29.3308 17.0109 29.2498 17.3565 29.0934L28.7965 23.8934C29.0325 23.7873 29.2326 23.6148 29.3722 23.397C29.5119 23.1792 29.5852 22.9254 29.5832 22.6667" stroke="#FF9900" stroke-width="2.66667" stroke-linecap="round" stroke-linejoin="round"/>
</svg>
