<svg width="33" height="32" viewBox="0 0 33 32" fill="none" xmlns="http://www.w3.org/2000/svg">
<path d="M29.7232 24L19.0566 5.33331C18.824 4.92291 18.4867 4.58156 18.0791 4.34407C17.6716 4.10657 17.2083 3.98145 16.7366 3.98145C16.2649 3.98145 15.8016 4.10657 15.394 4.34407C14.9864 4.58156 14.6492 4.92291 14.4166 5.33331L3.74991 24C3.51482 24.4071 3.39154 24.8692 3.39258 25.3393C3.39363 25.8095 3.51894 26.271 3.75583 26.6771C3.99273 27.0832 4.33277 27.4194 4.7415 27.6517C5.15023 27.8841 5.61312 28.0042 6.08324 28H27.4166C27.8844 27.9995 28.3439 27.8759 28.7489 27.6417C29.154 27.4074 29.4902 27.0708 29.7239 26.6655C29.9576 26.2602 30.0806 25.8005 30.0805 25.3326C30.0804 24.8648 29.9572 24.4052 29.7232 24Z" stroke="#8C4FFF" stroke-width="2.66667" stroke-linecap="round" stroke-linejoin="round"/>
<path d="M16.75 12V17.3333" stroke="#8C4FFF" stroke-width="2.66667" stroke-linecap="round" stroke-linejoin="round"/>
<path d="M16.75 22.6667H16.7633" stroke="#8C4FFF" stroke-width="2.66667" stroke-linecap="round" stroke-linejoin="round"/>
</svg>
