<svg width="33" height="32" viewBox="0 0 33 32" fill="none" xmlns="http://www.w3.org/2000/svg">
<path d="M30.0832 16H26.7765C26.1938 15.9988 25.6267 16.1884 25.162 16.54C24.6973 16.8915 24.3605 17.3856 24.2032 17.9467L21.0698 29.0934C21.0496 29.1626 21.0075 29.2234 20.9498 29.2667C20.8921 29.31 20.822 29.3334 20.7498 29.3334C20.6777 29.3334 20.6075 29.31 20.5498 29.2667C20.4921 29.2234 20.45 29.1626 20.4298 29.0934L13.0698 2.90669C13.0496 2.83745 13.0075 2.77663 12.9498 2.73335C12.8921 2.69008 12.822 2.66669 12.7498 2.66669C12.6777 2.66669 12.6075 2.69008 12.5498 2.73335C12.4921 2.77663 12.45 2.83745 12.4298 2.90669L9.2965 14.0534C9.13979 14.6122 8.80501 15.1047 8.34299 15.456C7.88097 15.8074 7.31693 15.9984 6.7365 16H3.4165" stroke="#8C4FFF" stroke-width="2.66667" stroke-linecap="round" stroke-linejoin="round"/>
</svg>
