<svg width="33" height="32" viewBox="0 0 33 32" fill="none" xmlns="http://www.w3.org/2000/svg">
<path d="M21.5832 28V25.3333C21.5832 23.9188 21.0213 22.5623 20.0211 21.5621C19.0209 20.5619 17.6643 20 16.2498 20H8.24984C6.83535 20 5.4788 20.5619 4.4786 21.5621C3.47841 22.5623 2.9165 23.9188 2.9165 25.3333V28" stroke="#DD344C" stroke-width="2.66667" stroke-linecap="round" stroke-linejoin="round"/>
<path d="M21.5835 4.17065C22.7272 4.46715 23.74 5.13501 24.4631 6.0694C25.1861 7.0038 25.5784 8.15184 25.5784 9.33332C25.5784 10.5148 25.1861 11.6628 24.4631 12.5972C23.74 13.5316 22.7272 14.1995 21.5835 14.496" stroke="#DD344C" stroke-width="2.66667" stroke-linecap="round" stroke-linejoin="round"/>
<path d="M29.5835 28V25.3333C29.5826 24.1516 29.1893 23.0037 28.4653 22.0698C27.7413 21.1358 26.7277 20.4688 25.5835 20.1733" stroke="#DD344C" stroke-width="2.66667" stroke-linecap="round" stroke-linejoin="round"/>
<path d="M12.2498 14.6667C15.1954 14.6667 17.5832 12.2789 17.5832 9.33333C17.5832 6.38781 15.1954 4 12.2498 4C9.30432 4 6.9165 6.38781 6.9165 9.33333C6.9165 12.2789 9.30432 14.6667 12.2498 14.6667Z" stroke="#DD344C" stroke-width="2.66667" stroke-linecap="round" stroke-linejoin="round"/>
</svg>
