<svg width="33" height="32" viewBox="0 0 33 32" fill="none" xmlns="http://www.w3.org/2000/svg">
<path d="M22.9168 28V25.3333C22.5632 25.3333 22.2241 25.1929 21.974 24.9428C21.724 24.6928 21.5835 24.3536 21.5835 24V22.6667C21.5835 21.9594 21.8644 21.2811 22.3645 20.781C22.8646 20.281 23.5429 20 24.2502 20H26.9168C27.6241 20 28.3024 20.281 28.8024 20.781C29.3025 21.2811 29.5835 21.9594 29.5835 22.6667V24C29.5835 24.3536 29.443 24.6928 29.193 24.9428C28.9429 25.1929 28.6038 25.3333 28.2502 25.3333" stroke="#7B69EC" stroke-width="2.66667" stroke-linecap="round" stroke-linejoin="round"/>
<path d="M25.5832 20V8.66667C25.5832 7.42899 25.0915 6.24201 24.2163 5.36684C23.3412 4.49167 22.1542 4 20.9165 4C19.6788 4 18.4918 4.49167 17.6167 5.36684C16.7415 6.24201 16.2498 7.42899 16.2498 8.66667V23.3333C16.2498 24.571 15.7582 25.758 14.883 26.6332C14.0078 27.5083 12.8208 28 11.5832 28C10.3455 28 9.15851 27.5083 8.28334 26.6332C7.40817 25.758 6.9165 24.571 6.9165 23.3333V12" stroke="#7B69EC" stroke-width="2.66667" stroke-linecap="round" stroke-linejoin="round"/>
<path d="M28.2498 28V25.3333H22.9165" stroke="#7B69EC" stroke-width="2.66667" stroke-linecap="round" stroke-linejoin="round"/>
<path d="M4.25 6.66667H9.58333V4" stroke="#7B69EC" stroke-width="2.66667" stroke-linecap="round" stroke-linejoin="round"/>
<path d="M9.58317 6.66667C9.93679 6.66667 10.2759 6.80714 10.526 7.05719C10.776 7.30724 10.9165 7.64638 10.9165 8V9.33333C10.9165 10.0406 10.6356 10.7189 10.1355 11.219C9.63536 11.719 8.95708 12 8.24984 12H5.58317C4.87593 12 4.19765 11.719 3.69755 11.219C3.19746 10.7189 2.9165 10.0406 2.9165 9.33333V8C2.9165 7.64638 3.05698 7.30724 3.30703 7.05719C3.55708 6.80714 3.89622 6.66667 4.24984 6.66667V4" stroke="#7B69EC" stroke-width="2.66667" stroke-linecap="round" stroke-linejoin="round"/>
</svg>
