<svg width="33" height="32" viewBox="0 0 33 32" fill="none" xmlns="http://www.w3.org/2000/svg">
<path d="M29.5832 16H2.9165" stroke="#569A31" stroke-width="2.66667" stroke-linecap="round" stroke-linejoin="round"/>
<path d="M7.5165 6.81334L2.9165 16V24C2.9165 24.7073 3.19746 25.3855 3.69755 25.8856C4.19765 26.3857 4.87593 26.6667 5.58317 26.6667H26.9165C27.6237 26.6667 28.302 26.3857 28.8021 25.8856C29.3022 25.3855 29.5832 24.7073 29.5832 24V16L24.9832 6.81334C24.7624 6.36906 24.4221 5.99517 24.0004 5.73372C23.5788 5.47226 23.0926 5.33361 22.5965 5.33334H9.90317C9.40706 5.33361 8.92086 5.47226 8.49923 5.73372C8.0776 5.99517 7.73727 6.36906 7.5165 6.81334Z" stroke="#569A31" stroke-width="2.66667" stroke-linecap="round" stroke-linejoin="round"/>
<path d="M8.25 21.3333H8.26333" stroke="#569A31" stroke-width="2.66667" stroke-linecap="round" stroke-linejoin="round"/>
<path d="M13.5835 21.3333H13.5968" stroke="#569A31" stroke-width="2.66667" stroke-linecap="round" stroke-linejoin="round"/>
</svg>
