<svg width="33" height="32" viewBox="0 0 33 32" fill="none" xmlns="http://www.w3.org/2000/svg">
<path d="M27.4165 2.66666H6.08317C4.61041 2.66666 3.4165 3.86056 3.4165 5.33332V10.6667C3.4165 12.1394 4.61041 13.3333 6.08317 13.3333H27.4165C28.8893 13.3333 30.0832 12.1394 30.0832 10.6667V5.33332C30.0832 3.86056 28.8893 2.66666 27.4165 2.66666Z" stroke="#FF9900" stroke-width="2.66667" stroke-linecap="round" stroke-linejoin="round"/>
<path d="M27.4165 18.6667H6.08317C4.61041 18.6667 3.4165 19.8606 3.4165 21.3333V26.6667C3.4165 28.1394 4.61041 29.3333 6.08317 29.3333H27.4165C28.8893 29.3333 30.0832 28.1394 30.0832 26.6667V21.3333C30.0832 19.8606 28.8893 18.6667 27.4165 18.6667Z" stroke="#FF9900" stroke-width="2.66667" stroke-linecap="round" stroke-linejoin="round"/>
<path d="M8.75 8H8.76333" stroke="#FF9900" stroke-width="2.66667" stroke-linecap="round" stroke-linejoin="round"/>
<path d="M8.75 24H8.76333" stroke="#FF9900" stroke-width="2.66667" stroke-linecap="round" stroke-linejoin="round"/>
</svg>
