<svg width="33" height="32" viewBox="0 0 33 32" fill="none" xmlns="http://www.w3.org/2000/svg">
<path d="M30.0832 10.2666C30.0832 9.46664 29.5498 8.66664 29.0165 8.26664L20.6165 3.06664C20.2711 2.87027 19.8805 2.76703 19.4832 2.76703C19.0858 2.76703 18.6953 2.87027 18.3498 3.06664L4.6165 11.0666C3.94984 11.3333 3.4165 12.1333 3.4165 12.9333V21.7333C3.4165 22.4 3.94984 23.3333 4.48317 23.7333L12.8832 28.9333C13.2286 29.1297 13.6191 29.2329 14.0165 29.2329C14.4139 29.2329 14.8044 29.1297 15.1498 28.9333L28.8832 20.9333C29.5498 20.5333 30.0832 19.6 30.0832 18.9333V10.2666Z" stroke="#FF9900" stroke-width="2.66667" stroke-linecap="round" stroke-linejoin="round"/>
<path d="M14.0831 29.2V18.6667L3.5498 12.1334" stroke="#FF9900" stroke-width="2.66667" stroke-linecap="round" stroke-linejoin="round"/>
<path d="M14.0835 18.6667L29.9502 9.46667" stroke="#FF9900" stroke-width="2.66667" stroke-linecap="round" stroke-linejoin="round"/>
<path d="M19.4165 26.4V15.6" stroke="#FF9900" stroke-width="2.66667" stroke-linecap="round" stroke-linejoin="round"/>
<path d="M24.75 23.3333V12.5333" stroke="#FF9900" stroke-width="2.66667" stroke-linecap="round" stroke-linejoin="round"/>
</svg>
