<svg width="33" height="32" viewBox="0 0 33 32" fill="none" xmlns="http://www.w3.org/2000/svg">
<path d="M20.7502 2.66669H8.75016C8.04292 2.66669 7.36464 2.94764 6.86454 3.44774C6.36445 3.94783 6.0835 4.62611 6.0835 5.33335V26.6667C6.0835 27.3739 6.36445 28.0522 6.86454 28.5523C7.36464 29.0524 8.04292 29.3334 8.75016 29.3334H24.7502C25.4574 29.3334 26.1357 29.0524 26.6358 28.5523C27.1359 28.0522 27.4168 27.3739 27.4168 26.6667V9.33335L20.7502 2.66669Z" stroke="#569A31" stroke-width="2.66667" stroke-linecap="round" stroke-linejoin="round"/>
<path d="M19.4165 2.66669V8.00002C19.4165 8.70726 19.6975 9.38554 20.1976 9.88564C20.6977 10.3857 21.3759 10.6667 22.0832 10.6667H27.4165" stroke="#569A31" stroke-width="2.66667" stroke-linecap="round" stroke-linejoin="round"/>
<path d="M14.0832 12H11.4165" stroke="#569A31" stroke-width="2.66667" stroke-linecap="round" stroke-linejoin="round"/>
<path d="M22.0832 17.3333H11.4165" stroke="#569A31" stroke-width="2.66667" stroke-linecap="round" stroke-linejoin="round"/>
<path d="M22.0832 22.6667H11.4165" stroke="#569A31" stroke-width="2.66667" stroke-linecap="round" stroke-linejoin="round"/>
</svg>
