<svg width="33" height="32" viewBox="0 0 33 32" fill="none" xmlns="http://www.w3.org/2000/svg">
<path d="M29.5832 10.2666C29.5832 9.46664 29.0498 8.66664 28.5165 8.26664L20.1165 3.06664C19.7711 2.87027 19.3805 2.76703 18.9832 2.76703C18.5858 2.76703 18.1953 2.87027 17.8498 3.06664L4.1165 11.0666C3.44984 11.3333 2.9165 12.1333 2.9165 12.9333V21.7333C2.9165 22.4 3.44984 23.3333 3.98317 23.7333L12.3832 28.9333C12.7286 29.1297 13.1191 29.2329 13.5165 29.2329C13.9139 29.2329 14.3044 29.1297 14.6498 28.9333L28.3832 20.9333C29.0498 20.5333 29.5832 19.6 29.5832 18.9333V10.2666Z" stroke="#FF9900" stroke-width="2.66667" stroke-linecap="round" stroke-linejoin="round"/>
<path d="M13.5831 29.2V18.6667L3.0498 12.1334" stroke="#FF9900" stroke-width="2.66667" stroke-linecap="round" stroke-linejoin="round"/>
<path d="M13.5835 18.6667L29.4502 9.46667" stroke="#FF9900" stroke-width="2.66667" stroke-linecap="round" stroke-linejoin="round"/>
<path d="M18.9165 26.4V15.6" stroke="#FF9900" stroke-width="2.66667" stroke-linecap="round" stroke-linejoin="round"/>
<path d="M24.25 23.3333V12.5333" stroke="#FF9900" stroke-width="2.66667" stroke-linecap="round" stroke-linejoin="round"/>
</svg>
