<svg width="33" height="32" viewBox="0 0 33 32" fill="none" xmlns="http://www.w3.org/2000/svg">
<path d="M28.2498 4H4.24984C3.51346 4 2.9165 4.59695 2.9165 5.33333V9.33333C2.9165 10.0697 3.51346 10.6667 4.24984 10.6667H28.2498C28.9862 10.6667 29.5832 10.0697 29.5832 9.33333V5.33333C29.5832 4.59695 28.9862 4 28.2498 4Z" stroke="#569A31" stroke-width="2.66667" stroke-linecap="round" stroke-linejoin="round"/>
<path d="M5.5835 10.6667V25.3334C5.5835 26.0406 5.86445 26.7189 6.36454 27.219C6.86464 27.7191 7.54292 28 8.25016 28H24.2502C24.9574 28 25.6357 27.7191 26.1358 27.219C26.6359 26.7189 26.9168 26.0406 26.9168 25.3334V10.6667" stroke="#569A31" stroke-width="2.66667" stroke-linecap="round" stroke-linejoin="round"/>
<path d="M13.5835 16H18.9168" stroke="#569A31" stroke-width="2.66667" stroke-linecap="round" stroke-linejoin="round"/>
</svg>
