<svg width="33" height="32" viewBox="0 0 33 32" fill="none" xmlns="http://www.w3.org/2000/svg">
<path d="M28.7498 4H4.74984C4.01346 4 3.4165 4.59695 3.4165 5.33333V9.33333C3.4165 10.0697 4.01346 10.6667 4.74984 10.6667H28.7498C29.4862 10.6667 30.0832 10.0697 30.0832 9.33333V5.33333C30.0832 4.59695 29.4862 4 28.7498 4Z" stroke="#569A31" stroke-width="2.66667" stroke-linecap="round" stroke-linejoin="round"/>
<path d="M6.0835 10.6667V25.3334C6.0835 26.0406 6.36445 26.7189 6.86454 27.219C7.36464 27.7191 8.04292 28 8.75016 28H24.7502C25.4574 28 26.1357 27.7191 26.6358 27.219C27.1359 26.7189 27.4168 26.0406 27.4168 25.3334V10.6667" stroke="#569A31" stroke-width="2.66667" stroke-linecap="round" stroke-linejoin="round"/>
<path d="M14.0835 16H19.4168" stroke="#569A31" stroke-width="2.66667" stroke-linecap="round" stroke-linejoin="round"/>
</svg>
