<svg width="33" height="32" viewBox="0 0 33 32" fill="none" xmlns="http://www.w3.org/2000/svg">
<path d="M27.4168 17.3333C27.4168 24 22.7502 27.3333 17.2035 29.2667C16.913 29.3651 16.5975 29.3604 16.3102 29.2533C10.7502 27.3333 6.0835 24 6.0835 17.3333V8.00001C6.0835 7.64639 6.22397 7.30725 6.47402 7.0572C6.72407 6.80715 7.06321 6.66668 7.41683 6.66668C10.0835 6.66668 13.4168 5.06668 15.7368 3.04001C16.0193 2.79867 16.3786 2.66608 16.7502 2.66608C17.1217 2.66608 17.481 2.79867 17.7635 3.04001C20.0968 5.08001 23.4168 6.66668 26.0835 6.66668C26.4371 6.66668 26.7763 6.80715 27.0263 7.0572C27.2764 7.30725 27.4168 7.64639 27.4168 8.00001V17.3333Z" stroke="#DD344C" stroke-width="2.66667" stroke-linecap="round" stroke-linejoin="round"/>
</svg>
