<svg width="33" height="32" viewBox="0 0 33 32" fill="none" xmlns="http://www.w3.org/2000/svg">
<path d="M21.4165 9.99998L24.4832 13.0666C24.7324 13.311 25.0675 13.4478 25.4165 13.4478C25.7655 13.4478 26.1006 13.311 26.3498 13.0666L29.1498 10.2666C29.3941 10.0174 29.531 9.68232 29.531 9.33331C29.531 8.98431 29.3941 8.64922 29.1498 8.39998L26.0832 5.33331" stroke="#DD344C" stroke-width="2.66667" stroke-linecap="round" stroke-linejoin="round"/>
<path d="M28.7502 2.66669L15.9502 15.4667" stroke="#DD344C" stroke-width="2.66667" stroke-linecap="round" stroke-linejoin="round"/>
<path d="M10.7498 28C14.7999 28 18.0832 24.7167 18.0832 20.6666C18.0832 16.6166 14.7999 13.3333 10.7498 13.3333C6.69975 13.3333 3.4165 16.6166 3.4165 20.6666C3.4165 24.7167 6.69975 28 10.7498 28Z" stroke="#DD344C" stroke-width="2.66667" stroke-linecap="round" stroke-linejoin="round"/>
</svg>
