<svg width="33" height="32" viewBox="0 0 33 32" fill="none" xmlns="http://www.w3.org/2000/svg">
<path d="M5.58349 18.6667C5.33117 18.6675 5.08379 18.5968 4.87009 18.4627C4.65639 18.3285 4.48513 18.1365 4.37622 17.9089C4.26731 17.6813 4.22521 17.4275 4.25482 17.1769C4.28443 16.9263 4.38453 16.6893 4.54349 16.4933L17.7435 2.89335C17.8425 2.77906 17.9774 2.70182 18.1261 2.67432C18.2748 2.64683 18.4285 2.6707 18.5618 2.74202C18.6951 2.81334 18.8003 2.92788 18.8599 3.06682C18.9196 3.20577 18.9303 3.36088 18.8902 3.50668L16.3302 11.5333C16.2547 11.7354 16.2293 11.9527 16.2563 12.1667C16.2832 12.3807 16.3617 12.5849 16.4849 12.7619C16.6082 12.9389 16.7725 13.0834 16.9639 13.1829C17.1552 13.2824 17.3678 13.334 17.5835 13.3333H26.9168C27.1691 13.3325 27.4165 13.4032 27.6302 13.5374C27.8439 13.6715 28.0152 13.8635 28.1241 14.0911C28.233 14.3187 28.2751 14.5726 28.2455 14.8231C28.2159 15.0737 28.1158 15.3107 27.9568 15.5067L14.7568 29.1067C14.6578 29.221 14.5229 29.2982 14.3742 29.3257C14.2255 29.3532 14.0719 29.3293 13.9385 29.258C13.8052 29.1867 13.7 29.0722 13.6404 28.9332C13.5807 28.7943 13.57 28.6392 13.6102 28.4933L16.1702 20.4667C16.2456 20.2646 16.271 20.0473 16.244 19.8333C16.2171 19.6194 16.1386 19.4151 16.0154 19.2381C15.8921 19.0611 15.7278 18.9167 15.5365 18.8171C15.3451 18.7176 15.1325 18.666 14.9168 18.6667H5.58349Z" stroke="#FF9900" stroke-width="2.66667" stroke-linecap="round" stroke-linejoin="round"/>
</svg>
