<svg width="33" height="32" viewBox="0 0 33 32" fill="none" xmlns="http://www.w3.org/2000/svg">
<path d="M16.75 10.6667C23.3774 10.6667 28.75 8.87583 28.75 6.66669C28.75 4.45755 23.3774 2.66669 16.75 2.66669C10.1226 2.66669 4.75 4.45755 4.75 6.66669C4.75 8.87583 10.1226 10.6667 16.75 10.6667Z" stroke="#3F48CC" stroke-width="2.66667" stroke-linecap="round" stroke-linejoin="round"/>
<path d="M4.75 6.66669V25.3334C4.75 26.3942 6.01428 27.4116 8.26472 28.1618C10.5152 28.9119 13.5674 29.3334 16.75 29.3334C19.9326 29.3334 22.9848 28.9119 25.2353 28.1618C27.4857 27.4116 28.75 26.3942 28.75 25.3334V6.66669" stroke="#3F48CC" stroke-width="2.66667" stroke-linecap="round" stroke-linejoin="round"/>
<path d="M4.75 16C4.75 17.0609 6.01428 18.0783 8.26472 18.8284C10.5152 19.5786 13.5674 20 16.75 20C19.9326 20 22.9848 19.5786 25.2353 18.8284C27.4857 18.0783 28.75 17.0609 28.75 16" stroke="#3F48CC" stroke-width="2.66667" stroke-linecap="round" stroke-linejoin="round"/>
</svg>
