<svg width="33" height="32" viewBox="0 0 33 32" fill="none" xmlns="http://www.w3.org/2000/svg">
<path d="M30.0832 16H3.4165" stroke="#569A31" stroke-width="2.66667" stroke-linecap="round" stroke-linejoin="round"/>
<path d="M8.0165 6.81334L3.4165 16V24C3.4165 24.7073 3.69746 25.3855 4.19755 25.8856C4.69765 26.3857 5.37593 26.6667 6.08317 26.6667H27.4165C28.1237 26.6667 28.802 26.3857 29.3021 25.8856C29.8022 25.3855 30.0832 24.7073 30.0832 24V16L25.4832 6.81334C25.2624 6.36906 24.9221 5.99517 24.5004 5.73372C24.0788 5.47226 23.5926 5.33361 23.0965 5.33334H10.4032C9.90706 5.33361 9.42086 5.47226 8.99923 5.73372C8.5776 5.99517 8.23727 6.36906 8.0165 6.81334Z" stroke="#569A31" stroke-width="2.66667" stroke-linecap="round" stroke-linejoin="round"/>
<path d="M8.75 21.3333H8.76333" stroke="#569A31" stroke-width="2.66667" stroke-linecap="round" stroke-linejoin="round"/>
<path d="M14.0835 21.3333H14.0968" stroke="#569A31" stroke-width="2.66667" stroke-linecap="round" stroke-linejoin="round"/>
</svg>
