<svg width="33" height="32" viewBox="0 0 33 32" fill="none" xmlns="http://www.w3.org/2000/svg">
<path d="M26.0833 14.6667H7.41667C5.94391 14.6667 4.75 15.8606 4.75 17.3334V26.6667C4.75 28.1394 5.94391 29.3334 7.41667 29.3334H26.0833C27.5561 29.3334 28.75 28.1394 28.75 26.6667V17.3334C28.75 15.8606 27.5561 14.6667 26.0833 14.6667Z" stroke="#DD344C" stroke-width="2.66667" stroke-linecap="round" stroke-linejoin="round"/>
<path d="M10.0835 14.6667V9.33335C10.0835 7.56524 10.7859 5.86955 12.0361 4.61931C13.2864 3.36907 14.9821 2.66669 16.7502 2.66669C18.5183 2.66669 20.214 3.36907 21.4642 4.61931C22.7145 5.86955 23.4168 7.56524 23.4168 9.33335V14.6667" stroke="#DD344C" stroke-width="2.66667" stroke-linecap="round" stroke-linejoin="round"/>
</svg>
