<svg width="33" height="32" viewBox="0 0 33 32" fill="none" xmlns="http://www.w3.org/2000/svg">
<path d="M28.7502 21.3333H23.4168C22.6804 21.3333 22.0835 21.9303 22.0835 22.6666V28C22.0835 28.7364 22.6804 29.3333 23.4168 29.3333H28.7502C29.4865 29.3333 30.0835 28.7364 30.0835 28V22.6666C30.0835 21.9303 29.4865 21.3333 28.7502 21.3333Z" stroke="#7B69EC" stroke-width="2.66667" stroke-linecap="round" stroke-linejoin="round"/>
<path d="M10.0832 21.3333H4.74984C4.01346 21.3333 3.4165 21.9303 3.4165 22.6666V28C3.4165 28.7364 4.01346 29.3333 4.74984 29.3333H10.0832C10.8196 29.3333 11.4165 28.7364 11.4165 28V22.6666C11.4165 21.9303 10.8196 21.3333 10.0832 21.3333Z" stroke="#7B69EC" stroke-width="2.66667" stroke-linecap="round" stroke-linejoin="round"/>
<path d="M19.4167 2.66669H14.0833C13.347 2.66669 12.75 3.26364 12.75 4.00002V9.33335C12.75 10.0697 13.347 10.6667 14.0833 10.6667H19.4167C20.153 10.6667 20.75 10.0697 20.75 9.33335V4.00002C20.75 3.26364 20.153 2.66669 19.4167 2.66669Z" stroke="#7B69EC" stroke-width="2.66667" stroke-linecap="round" stroke-linejoin="round"/>
<path d="M7.4165 21.3333V17.3333C7.4165 16.9797 7.55698 16.6406 7.80703 16.3905C8.05708 16.1405 8.39622 16 8.74984 16H24.7498C25.1035 16 25.4426 16.1405 25.6926 16.3905C25.9427 16.6406 26.0832 16.9797 26.0832 17.3333V21.3333" stroke="#7B69EC" stroke-width="2.66667" stroke-linecap="round" stroke-linejoin="round"/>
<path d="M16.75 16V10.6667" stroke="#7B69EC" stroke-width="2.66667" stroke-linecap="round" stroke-linejoin="round"/>
</svg>
