<svg width="33" height="32" viewBox="0 0 33 32" fill="none" xmlns="http://www.w3.org/2000/svg">
<path d="M25.5833 14.6667H6.91667C5.44391 14.6667 4.25 15.8606 4.25 17.3334V26.6667C4.25 28.1394 5.44391 29.3334 6.91667 29.3334H25.5833C27.0561 29.3334 28.25 28.1394 28.25 26.6667V17.3334C28.25 15.8606 27.0561 14.6667 25.5833 14.6667Z" stroke="#DD344C" stroke-width="2.66667" stroke-linecap="round" stroke-linejoin="round"/>
<path d="M9.5835 14.6667V9.33335C9.5835 7.56524 10.2859 5.86955 11.5361 4.61931C12.7864 3.36907 14.4821 2.66669 16.2502 2.66669C18.0183 2.66669 19.714 3.36907 20.9642 4.61931C22.2145 5.86955 22.9168 7.56524 22.9168 9.33335V14.6667" stroke="#DD344C" stroke-width="2.66667" stroke-linecap="round" stroke-linejoin="round"/>
</svg>
