<svg width="33" height="32" viewBox="0 0 33 32" fill="none" xmlns="http://www.w3.org/2000/svg">
<path d="M2.99936 16.464C2.88824 16.1646 2.88824 15.8353 2.99936 15.536C4.08162 12.9118 5.91871 10.668 8.27772 9.08919C10.6367 7.51034 13.4114 6.66748 16.25 6.66748C19.0886 6.66748 21.8633 7.51034 24.2223 9.08919C26.5813 10.668 28.4184 12.9118 29.5007 15.536C29.6118 15.8353 29.6118 16.1646 29.5007 16.464C28.4184 19.0882 26.5813 21.3319 24.2223 22.9108C21.8633 24.4897 19.0886 25.3325 16.25 25.3325C13.4114 25.3325 10.6367 24.4897 8.27772 22.9108C5.91871 21.3319 4.08162 19.0882 2.99936 16.464Z" stroke="#8C4FFF" stroke-width="2.66667" stroke-linecap="round" stroke-linejoin="round"/>
<path d="M16.25 20C18.4591 20 20.25 18.2091 20.25 16C20.25 13.7909 18.4591 12 16.25 12C14.0409 12 12.25 13.7909 12.25 16C12.25 18.2091 14.0409 20 16.25 20Z" stroke="#8C4FFF" stroke-width="2.66667" stroke-linecap="round" stroke-linejoin="round"/>
</svg>
